<?xml version="1.0" encoding="UTF-8" standalone="no"?>
<svg
   xmlns:dc="http://purl.org/dc/elements/1.1/"
   xmlns:cc="http://creativecommons.org/ns#"
   xmlns:rdf="http://www.w3.org/1999/02/22-rdf-syntax-ns#"
   xmlns:svg="http://www.w3.org/2000/svg"
   xmlns="http://www.w3.org/2000/svg"
   version="1.1"
   id="svg3476"
   viewBox="0 0 33.209289 46.875001"
   height="13.229167mm"
   width="9.3723993mm">
  <defs
     id="defs3478" />
  <metadata
     id="metadata3481">
    <rdf:RDF>
      <cc:Work
         rdf:about="">
        <dc:format>image/svg+xml</dc:format>
        <dc:type
           rdf:resource="http://purl.org/dc/dcmitype/StillImage" />
        <dc:title></dc:title>
      </cc:Work>
    </rdf:RDF>
  </metadata>
  <g
     transform="translate(-193.633,-741.4872)"
     id="layer1">
    <g
       transform="matrix(0.09155274,0,0,0.09155274,186.80014,741.4872)"
       id="g3013">
      <polygon
         style="fill:#264de4"
         points="107.644,470.877 74.633,100.62 437.367,100.62 404.321,470.819 255.778,512 "
         id="polygon2989" />
      <polygon
         style="fill:#2965f1"
         points="256,480.523 376.03,447.246 404.27,130.894 256,130.894 "
         id="polygon2991" />
      <polygon
         style="fill:#ebebeb"
         points="256,268.217 150.31,268.217 154.38,313.627 256,313.627 "
         id="polygon2993" />
      <polygon
         style="fill:#ebebeb"
         points="146.26,221.716 256,221.716 256,176.305 255.843,176.305 142.132,176.305 "
         id="polygon2995" />
      <polygon
         style="fill:#ebebeb"
         points="205.227,372.55 201.994,336.333 177.419,336.333 156.409,336.333 162.771,407.634 255.791,433.457 256,433.399 256,386.153 255.801,386.206 "
         id="polygon2997" />
      <path
         d="m 160,0 h 55 v 23 h -32 v 23 h 32 v 23 h -55 z"
         id="path2999" />
      <path
         d="m 226,0 h 55 v 20 h -32 v 4 h 32 V 70 H 226 V 49 h 32 v -4 h -32 z"
         id="path3001" />
      <path
         d="m 292,0 h 55 v 20 h -32 v 4 h 32 V 70 H 292 V 49 h 32 v -4 h -32 z"
         id="path3003" />
      <polygon
         style="fill:#ffffff"
         points="255.843,433.435 348.937,407.634 349.62,399.962 360.291,280.411 361.399,268.217 369.597,176.305 255.843,176.305 255.843,221.716 319.831,221.716 315.699,268.217 255.843,268.217 255.843,313.627 311.761,313.627 306.49,372.521 255.843,386.191 "
         id="polygon3005" />
    </g>
  </g>
</svg>
